HIERARCHY
ROOT newVegas:Hips
{
	OFFSET 0.000000 96.479958 0.000000
	CHANNELS 6 Xposition Yposition Zposition Xrotation Yrotation Zrotation
	JOINT newVegas:Pelvis
	{
		OFFSET 0.000000 0.000000 0.000000
		CHANNELS 3 Xrotation Yrotation Zrotation
		JOINT newVegas:LeftUpLeg
		{
			OFFSET 18.735201 -5.666702 -4.541200
			CHANNELS 3 Xrotation Yrotation Zrotation
			JOINT newVegas:LeftLeg
			{
				OFFSET -0.021200 -31.938179 0.493100
				CHANNELS 3 Xrotation Yrotation Zrotation
				JOINT newVegas:LeftFoot
				{
					OFFSET 0.021200 -31.938179 -4.336299
					CHANNELS 3 Xrotation Yrotation Zrotation
					JOINT newVegas:LeftToeBase
					{
						OFFSET 0.943001 -26.722000 15.023500
						CHANNELS 3 Xrotation Yrotation Zrotation
						End Site
						{
							OFFSET 0.000000 30.670183 0.000000
						}
					}
				}
				JOINT newVegas:Left_PantLeg
				{
					OFFSET 0.663870 -9.044666 -1.108900
					CHANNELS 3 Xrotation Yrotation Zrotation
					End Site
					{
						OFFSET 1.415995 20.635357 0.000000
					}
				}
			}
		}
		JOINT newVegas:RightUpLeg
		{
			OFFSET -18.735201 -5.666702 -4.541200
			CHANNELS 3 Xrotation Yrotation Zrotation
			JOINT newVegas:RightLeg
			{
				OFFSET 0.018946 -31.938133 0.493100
				CHANNELS 3 Xrotation Yrotation Zrotation
				JOINT newVegas:RightFoot
				{
					OFFSET -0.018946 -31.938126 -4.336299
					CHANNELS 3 Xrotation Yrotation Zrotation
					JOINT newVegas:RightToeBase
					{
						OFFSET -0.943001 -26.722004 15.023500
						CHANNELS 3 Xrotation Yrotation Zrotation
						End Site
						{
							OFFSET 0.000000 30.670187 0.000000
						}
					}
				}
				JOINT newVegas:Right_PantLeg
				{
					OFFSET -0.661674 -9.044716 -1.108900
					CHANNELS 3 Xrotation Yrotation Zrotation
					End Site
					{
						OFFSET -1.415958 20.635269 0.000000
					}
				}
			}
		}
	}
	JOINT newVegas:Spine
	{
		OFFSET 0.000000 10.199997 -0.299500
		CHANNELS 3 Xrotation Yrotation Zrotation
		JOINT newVegas:Spine1
		{
			OFFSET 0.000000 11.900002 -1.516600
			CHANNELS 3 Xrotation Yrotation Zrotation
			JOINT newVegas:Spine2
			{
				OFFSET 0.000000 13.600006 -2.842500
				CHANNELS 3 Xrotation Yrotation Zrotation
				JOINT newVegas:Neck
				{
					OFFSET 0.000000 9.624100 -2.890100
					CHANNELS 3 Xrotation Yrotation Zrotation
					JOINT newVegas:Head
					{
						OFFSET 0.000000 14.068802 -1.351900
						CHANNELS 3 Xrotation Yrotation Zrotation
						JOINT newVegas:Hair_Back
						{
							OFFSET 0.000000 3.231903 -17.524799
							CHANNELS 3 Xrotation Yrotation Zrotation
							End Site
							{
								OFFSET 0.000000 19.849884 0.000000
							}
						}
						JOINT newVegas:Hair_Front
						{
							OFFSET 0.000000 31.260406 4.573800
							CHANNELS 3 Xrotation Yrotation Zrotation
							JOINT newVegas:Hair_Front1
							{
								OFFSET 0.000000 2.284103 11.993300
								CHANNELS 3 Xrotation Yrotation Zrotation
								JOINT newVegas:Hair_Front2
								{
									OFFSET 0.000000 2.284103 11.993300
									CHANNELS 3 Xrotation Yrotation Zrotation
									End Site
									{
										OFFSET 0.000000 12.208862 0.000000
									}
								}
							}
						}
						JOINT newVegas:Jowel
						{
							OFFSET 0.000000 -7.458206 6.864100
							CHANNELS 3 Xrotation Yrotation Zrotation
							End Site
							{
								OFFSET 0.000000 19.849884 0.000000
							}
						}
					}
				}
				JOINT newVegas:LeftShoulder
				{
					OFFSET 15.263000 10.923401 -0.547700
					CHANNELS 3 Xrotation Yrotation Zrotation
					JOINT newVegas:LeftArm
					{
						OFFSET 25.438599 -2.830597 -13.032500
						CHANNELS 3 Xrotation Yrotation Zrotation
						JOINT newVegas:LeftForeArm
						{
							OFFSET 29.960503 0.000000 0.000000
							CHANNELS 3 Xrotation Yrotation Zrotation
							JOINT newVegas:LeftHand
							{
								OFFSET 27.849251 0.000000 0.000000
								CHANNELS 3 Xrotation Yrotation Zrotation
								JOINT newVegas:LeftHandThumb1
								{
									OFFSET 4.487587 -3.305161 6.305391
									CHANNELS 3 Xrotation Yrotation Zrotation
									JOINT newVegas:LeftHandThumb2
									{
										OFFSET 5.480453 -3.164139 3.164143
										CHANNELS 3 Xrotation Yrotation Zrotation
										JOINT newVegas:LeftHandThumb3
										{
											OFFSET 5.159721 -2.978973 2.978967
											CHANNELS 3 Xrotation Yrotation Zrotation
											End Site
											{
												OFFSET 2.494507 5.926697 1.738678
											}
										}
									}
								}
								JOINT newVegas:LeftHandIndex1
								{
									OFFSET 18.578728 -0.527832 5.208049
									CHANNELS 3 Xrotation Yrotation Zrotation
									JOINT newVegas:LeftHandIndex2
									{
										OFFSET 3.192009 0.000000 0.000000
										CHANNELS 3 Xrotation Yrotation Zrotation
										JOINT newVegas:LeftHandIndex3
										{
											OFFSET 3.835129 0.000000 0.000000
											CHANNELS 3 Xrotation Yrotation Zrotation
											End Site
											{
												OFFSET -0.034599 3.816971 0.371180
											}
										}
									}
								}
								JOINT newVegas:LeftHandMiddle1
								{
									OFFSET 18.476105 0.000000 0.000000
									CHANNELS 3 Xrotation Yrotation Zrotation
									JOINT newVegas:LeftHandMiddle2
									{
										OFFSET 3.324875 0.000000 0.000000
										CHANNELS 3 Xrotation Yrotation Zrotation
										JOINT newVegas:LeftHandMiddle3
										{
											OFFSET 4.596550 0.000000 0.000000
											CHANNELS 3 Xrotation Yrotation Zrotation
											End Site
											{
												OFFSET 0.057701 4.578827 0.399218
											}
										}
									}
								}
								JOINT newVegas:LeftHandRing1
								{
									OFFSET 17.732719 0.121887 -4.201567
									CHANNELS 3 Xrotation Yrotation Zrotation
									JOINT newVegas:LeftHandRing2
									{
										OFFSET 2.733170 0.000000 0.000000
										CHANNELS 3 Xrotation Yrotation Zrotation
										JOINT newVegas:LeftHandRing3
										{
											OFFSET 3.178268 0.000000 0.000000
											CHANNELS 3 Xrotation Yrotation Zrotation
											End Site
											{
												OFFSET 0.119102 3.170624 0.185394
											}
										}
									}
								}
								JOINT newVegas:LeftHandPinky1
								{
									OFFSET 15.989624 -0.606689 -7.535461
									CHANNELS 3 Xrotation Yrotation Zrotation
									JOINT newVegas:LeftHandPinky2
									{
										OFFSET 2.538986 0.000000 0.000000
										CHANNELS 3 Xrotation Yrotation Zrotation
										JOINT newVegas:LeftHandPinky3
										{
											OFFSET 2.593102 0.000000 0.000000
											CHANNELS 3 Xrotation Yrotation Zrotation
											End Site
											{
												OFFSET -0.150902 2.584198 0.152708
											}
										}
									}
								}
							}
							JOINT newVegas:Left_Sleeve
							{
								OFFSET 0.267448 -0.649796 0.577675
								CHANNELS 3 Xrotation Yrotation Zrotation
								End Site
								{
									OFFSET 0.000000 15.991241 0.000000
								}
							}
							JOINT newVegas:Left_CapeC
							{
								OFFSET 15.715958 -8.608795 -6.935905
								CHANNELS 3 Xrotation Yrotation Zrotation
								JOINT newVegas:Left_CapeC1
								{
									OFFSET 0.000000 -8.688499 0.000000
									CHANNELS 3 Xrotation Yrotation Zrotation
									End Site
									{
										OFFSET 0.000000 8.688499 0.000000
									}
								}
							}
						}
						JOINT newVegas:Left_CapeB
						{
							OFFSET 26.118385 -8.608795 -7.079235
							CHANNELS 3 Xrotation Yrotation Zrotation
							JOINT newVegas:Left_CapeB1
							{
								OFFSET 0.000000 -8.688499 0.000000
								CHANNELS 3 Xrotation Yrotation Zrotation
								End Site
								{
									OFFSET 0.000000 8.688499 0.000000
								}
							}
						}
						JOINT newVegas:Left_CapeA
						{
							OFFSET 5.115639 -8.608795 -10.395809
							CHANNELS 3 Xrotation Yrotation Zrotation
							JOINT newVegas:Left_CapeA1
							{
								OFFSET 0.000000 -8.688499 0.000000
								CHANNELS 3 Xrotation Yrotation Zrotation
								End Site
								{
									OFFSET 0.000000 8.688499 0.000000
								}
							}
						}
					}
				}
				JOINT newVegas:RightShoulder
				{
					OFFSET -15.263000 10.923401 -0.547700
					CHANNELS 3 Xrotation Yrotation Zrotation
					JOINT newVegas:RightArm
					{
						OFFSET -25.438599 -2.830597 -13.032500
						CHANNELS 3 Xrotation Yrotation Zrotation
						JOINT newVegas:RightForeArm
						{
							OFFSET -29.960503 0.000000 0.000000
							CHANNELS 3 Xrotation Yrotation Zrotation
							JOINT newVegas:RightHand
							{
								OFFSET -27.849251 0.000000 0.000000
								CHANNELS 3 Xrotation Yrotation Zrotation
								JOINT newVegas:RightHandThumb1
								{
									OFFSET -4.487587 -3.305161 6.305391
									CHANNELS 3 Xrotation Yrotation Zrotation
									JOINT newVegas:RightHandThumb2
									{
										OFFSET -5.480453 -3.164139 3.164143
										CHANNELS 3 Xrotation Yrotation Zrotation
										JOINT newVegas:RightHandThumb3
										{
											OFFSET -5.159721 -2.978973 2.978967
											CHANNELS 3 Xrotation Yrotation Zrotation
											End Site
											{
												OFFSET -2.494507 5.926697 1.738678
											}
										}
									}
								}
								JOINT newVegas:RightHandIndex1
								{
									OFFSET -18.578728 -0.527832 5.208049
									CHANNELS 3 Xrotation Yrotation Zrotation
									JOINT newVegas:RightHandIndex2
									{
										OFFSET -3.192009 0.000000 0.000000
										CHANNELS 3 Xrotation Yrotation Zrotation
										JOINT newVegas:RightHandIndex3
										{
											OFFSET -3.835129 0.000000 0.000000
											CHANNELS 3 Xrotation Yrotation Zrotation
											End Site
											{
												OFFSET 0.034599 3.816971 0.371180
											}
										}
									}
								}
								JOINT newVegas:RightHandMiddle1
								{
									OFFSET -18.476105 0.000000 0.000000
									CHANNELS 3 Xrotation Yrotation Zrotation
									JOINT newVegas:RightHandMiddle2
									{
										OFFSET -3.324875 0.000000 0.000000
										CHANNELS 3 Xrotation Yrotation Zrotation
										JOINT newVegas:RightHandMiddle3
										{
											OFFSET -4.596550 0.000000 0.000000
											CHANNELS 3 Xrotation Yrotation Zrotation
											End Site
											{
												OFFSET -0.057701 4.578827 0.399218
											}
										}
									}
								}
								JOINT newVegas:RightHandRing1
								{
									OFFSET -17.732719 0.121887 -4.201567
									CHANNELS 3 Xrotation Yrotation Zrotation
									JOINT newVegas:RightHandRing2
									{
										OFFSET -2.733170 0.000000 0.000000
										CHANNELS 3 Xrotation Yrotation Zrotation
										JOINT newVegas:RightHandRing3
										{
											OFFSET -3.178268 0.000000 0.000000
											CHANNELS 3 Xrotation Yrotation Zrotation
											End Site
											{
												OFFSET -0.119102 3.170624 0.185394
											}
										}
									}
								}
								JOINT newVegas:RightHandPinky1
								{
									OFFSET -15.989624 -0.606689 -7.535461
									CHANNELS 3 Xrotation Yrotation Zrotation
									JOINT newVegas:RightHandPinky2
									{
										OFFSET -2.538986 0.000000 0.000000
										CHANNELS 3 Xrotation Yrotation Zrotation
										JOINT newVegas:RightHandPinky3
										{
											OFFSET -2.593102 0.000000 0.000000
											CHANNELS 3 Xrotation Yrotation Zrotation
											End Site
											{
												OFFSET 0.150902 2.584198 0.152708
											}
										}
									}
								}
							}
							JOINT newVegas:Right_CapeC
							{
								OFFSET -15.715958 -8.608795 -6.935905
								CHANNELS 3 Xrotation Yrotation Zrotation
								JOINT newVegas:Right_CapeC1
								{
									OFFSET 0.000000 -8.688499 0.000000
									CHANNELS 3 Xrotation Yrotation Zrotation
									End Site
									{
										OFFSET 0.000000 8.688499 0.000000
									}
								}
							}
							JOINT newVegas:Right_Sleeve
							{
								OFFSET -0.267448 -0.649994 0.577675
								CHANNELS 3 Xrotation Yrotation Zrotation
								End Site
								{
									OFFSET 0.000000 15.991302 0.000000
								}
							}
						}
						JOINT newVegas:Right_CapeA
						{
							OFFSET -5.115540 -8.608795 -10.395824
							CHANNELS 3 Xrotation Yrotation Zrotation
							JOINT newVegas:Right_CapeA1
							{
								OFFSET 0.000000 -8.688499 0.000000
								CHANNELS 3 Xrotation Yrotation Zrotation
								End Site
								{
									OFFSET 0.000000 8.688499 0.000000
								}
							}
						}
						JOINT newVegas:Right_CapeB
						{
							OFFSET -26.118187 -8.608795 -7.079266
							CHANNELS 3 Xrotation Yrotation Zrotation
							JOINT newVegas:Right_CapeB1
							{
								OFFSET 0.000000 -8.688499 0.000000
								CHANNELS 3 Xrotation Yrotation Zrotation
								End Site
								{
									OFFSET 0.000000 8.688499 0.000000
								}
							}
						}
					}
				}
				JOINT newVegas:Left_Collar
				{
					OFFSET 18.625099 8.655502 8.828100
					CHANNELS 3 Xrotation Yrotation Zrotation
					JOINT newVegas:Left_Collar1
					{
						OFFSET 14.783401 10.540405 -1.259500
						CHANNELS 3 Xrotation Yrotation Zrotation
						End Site
						{
							OFFSET 0.000000 18.199875 0.000000
						}
					}
				}
				JOINT newVegas:Collar_Back
				{
					OFFSET 0.000000 15.630707 -20.132601
					CHANNELS 3 Xrotation Yrotation Zrotation
					End Site
					{
						OFFSET 0.000000 22.523010 0.000000
					}
				}
				JOINT newVegas:Left_Peck
				{
					OFFSET 17.239599 -5.132599 25.482599
					CHANNELS 3 Xrotation Yrotation Zrotation
					End Site
					{
						OFFSET 0.000000 22.523010 0.000000
					}
				}
				JOINT newVegas:Right_Peck
				{
					OFFSET -17.239599 -5.132202 25.482599
					CHANNELS 3 Xrotation Yrotation Zrotation
					End Site
					{
						OFFSET 0.000000 22.523010 0.000000
					}
				}
				JOINT newVegas:Right_Collar
				{
					OFFSET -18.625099 8.655792 8.828100
					CHANNELS 3 Xrotation Yrotation Zrotation
					JOINT newVegas:Right_Collar1
					{
						OFFSET -14.783401 10.539993 -1.259500
						CHANNELS 3 Xrotation Yrotation Zrotation
						End Site
						{
							OFFSET 0.000000 18.199631 0.000000
						}
					}
				}
			}
		}
		JOINT newVegas:Belly
		{
			OFFSET 0.000000 -6.540398 9.014299
			CHANNELS 3 Xrotation Yrotation Zrotation
			End Site
			{
				OFFSET 0.000000 11.566666 0.000000
			}
		}
	}
	JOINT newVegas:ElvisFacialAnim_Joint
	{
		OFFSET 1.000000 -95.330101 -8.825800
		CHANNELS 3 Xrotation Yrotation Zrotation
		End Site
		{
			OFFSET 0.000000 35.315800 0.000000
		}
	}
}
MOTION
Frames: 4
Frame Time: 0.033333
-0.477355 111.903419 2.701302 -95.500374 -7.255589 0.134844 -0.000000 0.000001 0.000000 -3.034299 13.102364 14.526351 13.298024 -1.412634 5.150295 38.080968 28.512775 -33.767496 -0.000000 -0.000002 0.000002 -0.000000 0.000001 0.000001 -11.604870 -11.974332 -16.607605 18.286233 -0.806564 -5.181405 38.361495 -29.040687 31.403683 0.000002 0.000000 -0.000001 0.000000 -0.000002 -0.000000 0.834128 0.570131 -1.932438 2.225231 1.683815 -0.657798 2.288175 1.647364 -0.639996 -1.238230 5.502481 -1.302425 -1.238231 5.502481 -1.302424 -0.000000 0.000000 0.000000 -1.238225 5.502480 -1.302421 -1.238186 5.502476 -1.302428 0.000000 -0.000002 0.000000 -0.000000 0.000000 -0.000000 0.514608 -0.232847 -3.157225 21.966337 -32.249954 -62.220742 0.000183 -79.683651 0.000185 -1.329623 7.049405 -14.754228 -5.218580 -3.359707 5.596914 7.385496 23.148022 2.272608 0.000003 0.000001 0.000003 0.915764 5.403947 -29.714168 0.382359 2.083622 -20.795008 -0.000000 0.000003 0.000002 0.656302 4.925768 -25.952624 0.379111 2.075025 -20.705406 0.000001 -0.000000 -0.000002 0.574706 4.751493 -24.069208 0.379109 2.075040 -20.705406 -0.000002 0.000001 0.000000 0.322888 4.082513 -17.072551 0.379108 2.075027 -20.705408 0.000003 -0.000002 0.000002 0.000001 0.000002 -0.000001 0.000001 0.000002 -0.000001 0.000001 0.000001 -0.000001 0.000002 -0.000001 0.000000 0.000002 0.000000 -0.000000 0.000002 -0.000001 0.000000 0.000000 -0.000000 -0.000000 0.666478 3.575162 9.854707 37.982043 29.380636 34.655734 0.001148 102.363430 -0.001115 -38.646488 12.303467 12.641551 -8.245042 0.297078 -8.931524 7.579905 -24.795270 -2.907029 0.000000 -0.000001 0.000001 0.905456 -3.314673 34.539457 0.217997 -1.409599 17.581783 0.000000 -0.000000 -0.000000 -0.241997 -3.204336 32.825350 0.218115 -1.409975 17.586656 0.000001 0.000000 -0.000002 -0.300130 -2.822100 28.489356 0.218004 -1.409597 17.581791 -0.000001 -0.000001 -0.000000 0.330078 -3.878172 20.013576 0.218177 -1.410126 17.588692 0.000001 -0.000002 0.000000 -0.000001 0.000001 -0.000001 0.000001 -0.000001 -0.000000 -0.000001 0.000001 -0.000000 0.000003 -0.000001 0.000002 0.000003 0.000000 0.000000 0.000003 -0.000001 0.000002 0.000003 -0.000000 0.000000 -0.000000 0.000000 0.000000 -0.000000 0.000000 0.000000 -0.000000 0.000000 0.000000 -0.000000 0.000000 0.000000 -0.000000 0.000000 0.000000 -0.000000 0.000000 0.000000 -0.000000 0.000000 0.000000 0.000000 -0.000000 0.000000 -0.000000 0.000001 0.000000 
-0.479057 111.898590 2.701813 -95.494664 -7.254910 0.146209 -0.000000 0.000000 0.000000 -3.019421 13.106385 14.513525 13.251574 -1.400216 5.149372 38.121659 28.512734 -33.773417 -0.000000 -0.000002 0.000001 -0.000000 0.000000 -0.000000 -11.629403 -11.964489 -16.617772 18.311599 -0.803044 -5.184611 38.354091 -29.038525 31.404260 0.000002 0.000002 -0.000001 -0.000000 -0.000000 -0.000000 0.834107 0.572026 -1.932624 2.225722 1.684826 -0.658441 2.290766 1.648546 -0.639756 -1.242656 5.522751 -1.297087 -1.242649 5.522751 -1.297085 0.000000 0.000001 -0.000000 -1.242596 5.522739 -1.297091 -1.242642 5.522768 -1.297084 -0.000000 0.000000 0.000000 0.000000 0.000001 -0.000000 0.513018 -0.215054 -3.158488 21.969182 -32.277237 -62.203776 0.000043 -79.669362 0.000039 -1.346674 7.035250 -14.757095 -5.218580 -3.359705 5.596915 7.385493 23.148027 2.272612 0.000002 0.000003 -0.000003 0.915762 5.403947 -29.714168 0.382357 2.083612 -20.795004 0.000000 0.000003 0.000000 0.656301 4.925769 -25.952627 0.379110 2.075029 -20.705408 -0.000002 0.000000 -0.000001 0.574706 4.751495 -24.069208 0.379109 2.075042 -20.705408 -0.000000 0.000001 -0.000001 0.322889 4.082515 -17.072555 0.379106 2.075029 -20.705411 0.000001 -0.000003 0.000001 -0.000001 0.000000 -0.000000 -0.000001 0.000000 -0.000000 -0.000001 0.000000 0.000000 -0.000000 -0.000001 -0.000001 0.000000 0.000000 -0.000001 -0.000000 -0.000001 -0.000001 -0.000002 0.000000 -0.000001 0.665321 3.589998 9.888028 37.986661 29.334187 34.641866 -0.001196 102.393606 0.001183 -38.630614 12.279860 12.624360 -8.245044 0.297081 -8.931526 7.579902 -24.795272 -2.907030 0.000003 -0.000003 0.000001 0.905458 -3.314671 34.539454 0.217996 -1.409598 17.581779 0.000000 0.000000 0.000001 -0.241997 -3.204334 32.825343 0.218120 -1.409974 17.586660 0.000001 0.000000 0.000000 -0.300127 -2.822098 28.489358 0.218002 -1.409590 17.581790 -0.000001 -0.000001 0.000001 0.330079 -3.878172 20.013574 0.218175 -1.410122 17.588685 0.000000 -0.000000 -0.000000 -0.000000 0.000002 0.000003 0.000002 0.000000 0.000003 0.000000 0.000002 0.000004 0.000001 -0.000001 0.000001 0.000001 0.000000 0.000001 0.000001 -0.000001 0.000001 0.000001 -0.000000 0.000001 0.000000 0.000000 -0.000000 0.000000 0.000000 -0.000000 0.000000 0.000000 -0.000000 0.000000 0.000000 -0.000000 0.000000 0.000000 -0.000000 0.000000 0.000000 -0.000000 0.000000 0.000000 -0.000000 0.000000 -0.000000 0.000000 -0.000000 0.000000 0.000000 
-0.480580 111.893372 2.702103 -95.488647 -7.254265 0.157551 -0.000000 0.000000 0.000000 -3.004695 13.108578 14.500375 13.203714 -1.387209 5.148565 38.163159 28.512377 -33.779189 0.000002 0.000001 -0.000001 0.000000 0.000000 0.000001 -11.652194 -11.957724 -16.629858 18.334881 -0.819886 -5.187373 38.355187 -29.036835 31.408065 0.000001 0.000000 -0.000000 0.000000 -0.000001 -0.000001 0.833833 0.574033 -1.932693 2.225987 1.687719 -0.656916 2.292794 1.649747 -0.637845 -1.258979 5.490236 -1.291085 -1.258962 5.490234 -1.291086 0.000000 0.000000 0.000000 -1.258944 5.490240 -1.291088 -1.258962 5.490247 -1.291092 -0.000000 -0.000000 0.000000 0.000000 0.000000 -0.000000 0.513030 -0.195684 -3.183946 21.981963 -32.299937 -62.159141 -0.000105 -79.661186 -0.000101 -1.371544 7.022947 -14.760080 -5.218579 -3.359712 5.596913 7.385495 23.148030 2.272614 0.000000 -0.000004 -0.000003 0.915765 5.403942 -29.714168 0.382361 2.083612 -20.795008 -0.000002 -0.000003 -0.000000 0.656301 4.925762 -25.952624 0.379109 2.075022 -20.705406 0.000001 0.000003 -0.000002 0.574707 4.751493 -24.069213 0.379107 2.075040 -20.705406 0.000000 -0.000001 0.000002 0.322887 4.082509 -17.072550 0.379104 2.075025 -20.705408 0.000001 -0.000003 0.000001 0.000001 -0.000001 0.000000 0.000001 -0.000001 0.000000 0.000001 -0.000001 0.000001 -0.000000 0.000000 -0.000001 -0.000000 0.000001 -0.000001 -0.000000 0.000000 -0.000001 -0.000002 0.000001 -0.000001 0.671712 3.595191 9.860742 37.963878 29.343463 34.679439 0.001712 102.397568 -0.001666 -38.604294 12.266249 12.609392 -8.245042 0.297081 -8.931527 7.579911 -24.795274 -2.907026 0.000001 -0.000001 -0.000002 0.905456 -3.314671 34.539457 0.217998 -1.409598 17.581778 -0.000000 0.000000 0.000002 -0.241999 -3.204335 32.825350 0.218118 -1.409974 17.586656 0.000001 0.000000 -0.000002 -0.300132 -2.822096 28.489353 0.218001 -1.409597 17.581791 0.000000 -0.000001 -0.000001 0.330074 -3.878170 20.013569 0.218176 -1.410124 17.588692 0.000001 -0.000004 -0.000001 0.000001 -0.000001 -0.000001 0.000003 -0.000001 0.000003 0.000002 -0.000001 -0.000000 -0.000001 -0.000002 -0.000002 -0.000001 -0.000001 -0.000001 -0.000001 -0.000002 -0.000002 -0.000001 -0.000001 -0.000002 0.000000 -0.000000 0.000000 0.000000 -0.000000 0.000000 0.000000 -0.000000 0.000000 0.000000 -0.000000 0.000000 0.000000 -0.000000 0.000000 0.000000 -0.000000 0.000000 0.000000 -0.000000 0.000000 0.000000 -0.000000 -0.000000 -0.000000 0.000000 0.000000 
-0.482314 111.887718 2.702843 -95.482472 -7.253699 0.168707 -0.000000 -0.000000 0.000000 -2.992402 13.110324 14.488223 13.159308 -1.374158 5.147829 38.203007 28.512136 -33.785524 -0.000000 0.000004 -0.000001 -0.000000 -0.000001 -0.000000 -11.668104 -11.952920 -16.643378 18.349945 -0.838908 -5.189360 38.356867 -29.035332 31.423890 0.000000 0.000000 -0.000000 0.000000 -0.000001 -0.000001 0.833385 0.576140 -1.932901 2.225107 1.691385 -0.650461 2.294108 1.650890 -0.634199 -1.280800 5.462022 -1.276361 -1.280825 5.462022 -1.276358 -0.000000 -0.000000 0.000000 -1.280744 5.462028 -1.276364 -1.280770 5.462023 -1.276366 -0.000000 0.000001 -0.000000 -0.000000 -0.000000 -0.000000 0.514481 -0.174805 -3.225483 22.001428 -32.319519 -62.095483 -0.000123 -79.657109 -0.000108 -1.401132 7.012394 -14.765213 -5.218577 -3.359708 5.596918 7.385497 23.148020 2.272616 0.000004 0.000001 0.000003 0.915766 5.403944 -29.714171 0.382359 2.083615 -20.795003 0.000001 0.000003 0.000003 0.656304 4.925769 -25.952625 0.379108 2.075031 -20.705406 -0.000002 0.000001 -0.000000 0.574708 4.751491 -24.069216 0.379107 2.075042 -20.705408 -0.000001 -0.000001 0.000001 0.322891 4.082516 -17.072553 0.379106 2.075023 -20.705409 0.000000 -0.000005 -0.000001 -0.000002 0.000000 -0.000002 -0.000002 0.000000 -0.000002 -0.000002 -0.000000 -0.000001 0.000000 0.000000 0.000001 0.000000 0.000000 0.000000 0.000000 0.000000 0.000001 -0.000001 -0.000000 0.000001 0.682679 3.597530 9.799301 37.927491 29.378928 34.745019 -0.000302 102.387630 0.000267 -38.571977 12.258598 12.594772 -8.245042 0.297079 -8.931529 7.579904 -24.795274 -2.907026 0.000002 -0.000006 -0.000001 0.905457 -3.314671 34.539461 0.217998 -1.409599 17.581779 -0.000001 0.000000 -0.000001 -0.241997 -3.204335 32.825350 0.218117 -1.409975 17.586655 0.000002 0.000001 -0.000000 -0.300128 -2.822098 28.489354 0.218004 -1.409594 17.581791 -0.000001 0.000002 -0.000001 0.330077 -3.878172 20.013576 0.218175 -1.410120 17.588688 0.000000 -0.000000 -0.000000 0.000001 -0.000002 0.000001 0.000003 -0.000002 0.000003 0.000002 -0.000002 0.000002 0.000001 -0.000001 -0.000000 0.000001 0.000000 -0.000000 0.000001 -0.000001 -0.000000 0.000001 -0.000000 -0.000000 -0.000000 0.000000 0.000000 -0.000000 0.000000 0.000000 -0.000000 0.000000 0.000000 -0.000000 0.000000 0.000000 -0.000000 0.000000 0.000000 -0.000000 0.000000 0.000000 -0.000000 0.000000 0.000000 0.000000 -0.000000 -0.000000 -0.000000 -0.000000 0.000000 
